<svg xmlns="http://www.w3.org/2000/svg" viewBox="0 0 300 75">
  <g fill="none" fill-rule="evenodd">
    <path stroke="#7ED321" stroke-opacity=".7" stroke-width="4" d="M40 29c0-2.76-2.24-5-5-5s-5 2.24-5 5" stroke-linecap="round"/>
    <path stroke="#7ED321" stroke-opacity=".5" stroke-width="4" d="M47 28.95c0-6.627-5.373-12-12-12s-12 5.373-12 12" stroke-linecap="round"/>
    <path stroke="#7ED321" stroke-opacity=".25" stroke-width="4" d="M54 29c0-10.493-8.507-19-19-19s-19 8.507-19 19" stroke-linecap="round"/>
    <path fill="#4A4A4A" d="M14 34h43c1.657 0 3 1.343 3 3v25c0 1.657-1.343 3-3 3H14c-1.657 0-3-1.343-3-3V37c0-1.657 1.343-3 3-3z"/>
    <path fill="#FFF" d="M14.684 55h5.632c.378 0 .684.306.684.684v5.632c0 .378-.306.684-.684.684h-5.632c-.378 0-.684-.306-.684-.684v-5.632c0-.378.306-.684.684-.684zm0-9h5.632c.378 0 .684.306.684.684v5.632c0 .378-.306.684-.684.684h-5.632c-.378 0-.684-.306-.684-.684v-5.632c0-.378.306-.684.684-.684zm36 9h5.632c.378 0 .684.306.684.684v5.632c0 .378-.306.684-.684.684h-5.632c-.378 0-.684-.306-.684-.684v-5.632c0-.378.306-.684.684-.684zm-9-9h14.632c.378 0 .684.306.684.684v5.632c0 .378-.306.684-.684.684H41.684c-.378 0-.684-.306-.684-.684v-5.632c0-.378.306-.684.684-.684zm-18 0h5.632c.378 0 .684.306.684.684v5.632c0 .378-.306.684-.684.684h-5.632c-.378 0-.684-.306-.684-.684v-5.632c0-.378.306-.684.684-.684zm9 0h5.632c.378 0 .684.306.684.684v5.632c0 .378-.306.684-.684.684h-5.632c-.378 0-.684-.306-.684-.684v-5.632c0-.378.306-.684.684-.684zm18-9h5.632c.378 0 .684.306.684.684v5.632c0 .378-.306.684-.684.684h-5.632c-.378 0-.684-.306-.684-.684v-5.632c0-.378.306-.684.684-.684zm-27 0h5.632c.378 0 .684.306.684.684v5.632c0 .378-.306.684-.684.684h-5.632c-.378 0-.684-.306-.684-.684v-5.632c0-.378.306-.684.684-.684zm9 0h5.632c.378 0 .684.306.684.684v5.632c0 .378-.306.684-.684.684h-5.632c-.378 0-.684-.306-.684-.684v-5.632c0-.378.306-.684.684-.684zm9 0h5.632c.378 0 .684.306.684.684v5.632c0 .378-.306.684-.684.684h-5.632c-.378 0-.684-.306-.684-.684v-5.632c0-.378.306-.684.684-.684zm-27 0h5.632c.378 0 .684.306.684.684v5.632c0 .378-.306.684-.684.684h-5.632c-.378 0-.684-.306-.684-.684v-5.632c0-.378.306-.684.684-.684zm9 18h23.632c.378 0 .684.306.684.684v5.632c0 .378-.306.684-.684.684H23.684c-.378 0-.684-.306-.684-.684v-5.632c0-.378.306-.684.684-.684z"/>
    <path fill="#E3E3E2" d="M14 60h7v1.316c0 .378-.306.684-.684.684h-5.632c-.378 0-.684-.306-.684-.684V60zm0-9h7v1.316c0 .378-.306.684-.684.684h-5.632c-.378 0-.684-.306-.684-.684V51zm36 9h7v1.316c0 .378-.306.684-.684.684h-5.632c-.378 0-.684-.306-.684-.684V60zm-9-9h16v1.316c0 .378-.306.684-.684.684H41.684c-.378 0-.684-.306-.684-.684V51zm-18 0h7v1.316c0 .378-.306.684-.684.684h-5.632c-.378 0-.684-.306-.684-.684V51zm9 0h7v1.316c0 .378-.306.684-.684.684h-5.632c-.378 0-.684-.306-.684-.684V51zm18-9h7v1.316c0 .378-.306.684-.684.684h-5.632c-.378 0-.684-.306-.684-.684V42zm-27 0h7v1.316c0 .378-.306.684-.684.684h-5.632c-.378 0-.684-.306-.684-.684V42zm9 0h7v1.316c0 .378-.306.684-.684.684h-5.632c-.378 0-.684-.306-.684-.684V42zm9 0h7v1.316c0 .378-.306.684-.684.684h-5.632c-.378 0-.684-.306-.684-.684V42zm-27 0h7v1.316c0 .378-.306.684-.684.684h-5.632c-.378 0-.684-.306-.684-.684V42zm9 18h25v1.316c0 .378-.306.684-.684.684H23.684c-.378 0-.684-.306-.684-.684V60z"/>
    <path fill="#4A4A4A" d="M89.764 36.086v3.696h-6.072v18.282h-4.62V39.782H73v-3.696h16.764zm4.148 28.776l2.178-6.303-5.907-16.57h4.686l3.39 11.94 3.26-11.95h4.58l-7.69 22.87H93.9zm14.52-22.87h4.323v2.047c.528-.73 1.188-1.31 1.98-1.74.792-.43 1.76-.65 2.904-.65.96 0 1.84.2 2.64.59.79.39 1.46.95 2.02 1.66.56.72.99 1.57 1.3 2.57.31 1 .46 2.11.46 3.35 0 1.38-.22 2.61-.66 3.68-.44 1.06-1.04 1.96-1.79 2.69-.75.72-1.62 1.27-2.62 1.63-1 .36-2.08.54-3.22.54-.59 0-1.12-.04-1.58-.12-.47-.08-.88-.17-1.26-.28v6.86h-4.52V41.99zm7.69 3.202c-.727 0-1.36.154-1.898.462-.54.308-.963.65-1.27 1.023v7.95c.285.11.615.19.99.24.373.05.77.08 1.187.08 1.54 0 2.67-.48 3.37-1.42.71-.95 1.06-2.17 1.06-3.67 0-1.34-.28-2.46-.84-3.35-.56-.89-1.42-1.34-2.59-1.34zm11.153 12.87v-16.07h4.52v16.07h-4.52zm-.363-20.757c0-.726.242-1.342.726-1.848.484-.51 1.11-.76 1.88-.76.77 0 1.403.25 1.9.76.494.5.74 1.12.74 1.84 0 .7-.246 1.31-.74 1.83-.497.52-1.13.77-1.9.77s-1.396-.26-1.88-.78-.726-1.13-.726-1.83zm9.174 20.757v-16.07h4.356v2.177c.528-.85 1.2-1.49 2.013-1.89.814-.4 1.705-.61 2.673-.61 1.034 0 1.92.22 2.657.66.737.44 1.336 1.03 1.798 1.77.462.74.803 1.6 1.023 2.58.22.98.33 2 .33 3.06v8.35h-4.52V49.7c0-1.45-.226-2.55-.678-3.3-.45-.748-1.193-1.12-2.227-1.12-.66 0-1.23.152-1.71.46-.48.31-.88.67-1.19 1.09v11.25h-4.52zm33.43-16.07v3.002h-2.542c.374.638.56 1.375.56 2.21 0 .77-.153 1.486-.46 2.146-.31.66-.75 1.237-1.32 1.732-.573.495-1.277.88-2.113 1.155-.83.27-1.78.41-2.83.41h-.21c-.1 0-.21-.01-.34-.04-.11.17-.2.33-.26.47-.06.14-.1.32-.1.54 0 .37.17.63.5.79.33.15.76.25 1.29.3l2.64.16c1.65.11 2.95.48 3.88 1.12.94.64 1.4 1.67 1.4 3.1 0 .96-.25 1.82-.77 2.57s-1.2 1.38-2.06 1.89c-.86.52-1.84.91-2.95 1.19-1.11.27-2.26.41-3.45.41-.92 0-1.81-.08-2.67-.22-.86-.14-1.62-.38-2.29-.71-.67-.33-1.2-.75-1.6-1.27-.39-.52-.59-1.15-.59-1.9 0-.55.12-1.03.368-1.44.24-.41.55-.76.94-1.06.383-.3.82-.54 1.32-.73.493-.19 1.004-.35 1.53-.48-.46-.24-.823-.547-1.09-.91-.26-.36-.393-.807-.393-1.335 0-.37.07-.71.216-1.02.148-.31.32-.58.53-.825.21-.24.448-.45.71-.624.266-.175.53-.32.79-.43-1.294-.37-2.29-1.004-2.983-1.896-.696-.89-1.04-1.94-1.04-3.15 0-.79.15-1.52.444-2.194.3-.67.73-1.256 1.307-1.75.57-.496 1.28-.886 2.11-1.17.84-.288 1.8-.43 2.87-.43.44 0 .87.03 1.27.08.41.058.8.14 1.17.25h6.27zM159.383 57.93c-.44.242-.874.54-1.303.89-.43.353-.643.826-.643 1.42 0 .682.29 1.182.874 1.5.59.32 1.39.48 2.4.48.57 0 1.14-.055 1.7-.165.56-.11 1.06-.27 1.5-.48.44-.208.8-.466 1.08-.774.28-.3.42-.67.42-1.09 0-.52-.21-.89-.64-1.1-.43-.21-.99-.33-1.7-.38l-3.66-.29zm1.42-8.15c.835 0 1.506-.238 2.012-.71.506-.474.76-1.106.76-1.898 0-.814-.248-1.458-.743-1.93-.496-.474-1.172-.71-2.03-.71-.858 0-1.534.23-2.03.693-.495.462-.742 1.11-.742 1.947 0 .814.254 1.452.76 1.914.506.462 1.177.693 2.013.693zm30.095-13.696h4.157l1.617 21.978h-4.52l-.76-13.662-4.85 9.966h-4.753l-4.85-9.966-.76 13.662h-4.52l1.61-21.978h4.16l6.73 14.19 6.73-14.19zm25.013 13.96c0 1.165-.18 2.254-.54 3.266-.36 1.012-.9 1.897-1.6 2.656-.7.76-1.56 1.353-2.59 1.782-1.02.43-2.2.644-3.55.644s-2.52-.215-3.54-.644c-1.02-.43-1.88-1.022-2.59-1.782s-1.23-1.644-1.6-2.656c-.36-1.012-.54-2.1-.54-3.267 0-1.166.18-2.255.55-3.267.37-1.012.9-1.897 1.6-2.657.71-.76 1.57-1.36 2.59-1.8 1.03-.44 2.21-.66 3.55-.66s2.53.22 3.55.66c1.02.44 1.89 1.04 2.59 1.8s1.24 1.64 1.6 2.65c.37 1.01.55 2.1.55 3.26zm-4.52 0c0-.66-.06-1.294-.2-1.9-.13-.604-.34-1.137-.64-1.6-.29-.46-.68-.83-1.17-1.105-.48-.28-1.07-.41-1.75-.41-.7 0-1.29.13-1.76.41-.47.27-.85.64-1.15 1.1-.3.46-.51.99-.64 1.6-.13.6-.2 1.24-.2 1.9 0 .66.07 1.28.2 1.88.13.59.35 1.12.65 1.58.3.46.68.83 1.16 1.1.48.27 1.07.41 1.77.41.68 0 1.27-.14 1.75-.42.48-.27.87-.64 1.17-1.1.3-.47.51-.99.65-1.59.13-.59.2-1.22.2-1.88zm7.76 8.018v-16.07h4.36v2.177c.53-.86 1.2-1.49 2.02-1.9.82-.41 1.71-.61 2.68-.61 1.04 0 1.92.22 2.66.66.74.44 1.34 1.03 1.8 1.76.46.74.81 1.59 1.03 2.57.22.98.33 1.99.33 3.05v8.35h-4.52v-8.38c0-1.46-.22-2.56-.68-3.3-.45-.75-1.19-1.13-2.23-1.13-.66 0-1.23.15-1.71.46-.48.3-.88.67-1.18 1.09v11.25h-4.52zm18.98 0v-16.07h4.52v16.07h-4.52zm-.36-20.757c0-.726.24-1.342.73-1.848.49-.507 1.11-.76 1.88-.76.77 0 1.41.253 1.9.76.5.505.75 1.12.75 1.847 0 .704-.24 1.314-.74 1.83-.49.518-1.12.777-1.89.777s-1.39-.26-1.88-.77-.72-1.12-.72-1.83zm7.53 4.686h2.61v-4.15h4.52V42h4.82v3.53h-4.82v6.9c0 .75.14 1.34.42 1.78.28.44.82.66 1.64.66.86 0 1.67-.12 2.44-.362l.33 3.2c-.48.2-1.09.364-1.81.496s-1.45.198-2.17.198c-.97 0-1.79-.15-2.46-.445-.67-.295-1.22-.71-1.65-1.235-.43-.526-.74-1.142-.94-1.846-.2-.704-.3-1.474-.3-2.31v-7.03h-2.61V42zm30.4 8.06c0 1.17-.18 2.26-.54 3.27-.36 1.02-.9 1.9-1.6 2.66-.7.76-1.57 1.36-2.59 1.78-1.02.43-2.21.65-3.55.65-1.34 0-2.52-.21-3.54-.64-1.02-.43-1.89-1.02-2.59-1.78-.71-.76-1.24-1.64-1.6-2.65-.37-1.01-.55-2.1-.55-3.26s.18-2.25.55-3.26c.37-1.01.9-1.9 1.6-2.66.71-.76 1.57-1.35 2.59-1.79 1.03-.44 2.21-.66 3.55-.66 1.34 0 2.53.22 3.55.66 1.03.44 1.89 1.04 2.59 1.8.71.76 1.24 1.65 1.6 2.66.37 1.01.55 2.1.55 3.27zm-4.52 0c0-.66-.06-1.29-.2-1.9-.13-.6-.34-1.14-.64-1.6-.29-.46-.68-.83-1.17-1.1-.48-.27-1.06-.41-1.75-.41-.7 0-1.29.14-1.76.41-.47.28-.86.65-1.15 1.11-.3.46-.51 1-.64 1.6-.13.61-.2 1.24-.2 1.9 0 .66.07 1.29.2 1.88.13.6.35 1.13.64 1.59.3.46.68.83 1.15 1.11.48.28 1.06.42 1.77.42.68 0 1.26-.14 1.75-.41.48-.28.87-.64 1.17-1.11.3-.46.51-.99.64-1.58.13-.59.2-1.22.2-1.88zm17.62-4.19h-.75c-1.12 0-2.06.18-2.8.53-.74.36-1.34.86-1.78 1.52v10.16h-4.52V42h4.36v2.836c.31-.946.8-1.683 1.47-2.21.67-.53 1.57-.793 2.69-.793.51 0 .96.055 1.36.165v3.86z"/>
  </g>
</svg>
